<?xml version="1.0" standalone="no"?>
<!DOCTYPE svg PUBLIC "-//W3C//DTD SVG 20010904//EN"
 "http://www.w3.org/TR/2001/REC-SVG-20010904/DTD/svg10.dtd">
<svg version="1.0" xmlns="http://www.w3.org/2000/svg"
 width="500.000000pt" height="500.000000pt" viewBox="0 0 500.000000 500.000000"
 preserveAspectRatio="xMidYMid meet">
<metadata>
Created by potrace 1.11, written by Peter Selinger 2001-2013
</metadata>
<g transform="translate(0.000000,500.000000) scale(0.100000,-0.100000)"
fill="#000000" stroke="none">
<path d="M570 2500 l0 -2500 1925 0 1925 0 0 1866 0 1865 -633 635 -633 634
-1292 0 -1292 0 0 -2500z m2310 1538 l0 -578 38 -1 c20 0 279 0 575 0 295 0
537 -3 538 -7 1 -4 2 -697 3 -1540 1 -1355 -1 -1533 -14 -1536 -13 -3 -3047 0
-3060 3 -4 1 -5 4214 -1 4231 0 3 433 5 961 5 l960 0 0 -577z m633 54 l247
-247 -245 0 c-135 0 -246 2 -246 5 -1 3 -5 490 -4 490 0 0 111 -111 248 -248z"/>
<path d="M1520 2863 l0 -193 975 0 975 0 0 193 0 194 -975 0 -975 0 0 -194z"/>
<path d="M1520 2020 l0 -195 923 2 c507 1 946 2 975 2 l52 1 -2 192 -3 192
-973 0 -972 1 0 -195z"/>
<path d="M1537 1382 c-16 -3 -17 -21 -15 -195 l3 -192 970 0 970 1 3 194 2
195 -958 0 c-527 0 -966 -1 -975 -3z"/>
</g>
</svg>
